<?xml version="1.0" encoding="utf-8"?><!DOCTYPE svg PUBLIC "-//W3C//DTD SVG 1.1//EN" "http://www.w3.org/Graphics/SVG/1.1/DTD/svg11.dtd"><svg xmlns="http://www.w3.org/2000/svg" xmlns:xlink="http://www.w3.org/1999/xlink"><symbol viewBox="0 0 48 48" id="business"><g fill="#263238"><path d="M11 44H9c-.6 0-1-.4-1-1v-2h4v2c0 .6-.4 1-1 1zM39 44h-2c-.6 0-1-.4-1-1v-2h4v2c0 .6-.4 1-1 1z"/></g><path fill="#37474F" d="M27 7h-6c-1.7 0-3 1.3-3 3v3h2v-3c0-.6.4-1 1-1h6c.6 0 1 .4 1 1v3h2v-3c0-1.7-1.3-3-3-3z"/><path fill="#78909C" d="M40 43H8c-2.2 0-4-1.8-4-4V15c0-2.2 1.8-4 4-4h32c2.2 0 4 1.8 4 4v24c0 2.2-1.8 4-4 4z"/></symbol><symbol viewBox="0 0 834 294" id="cohort-19-text-yellow"><title>cohort-19-text-yellow</title><g transform="translate(0 4)" fill="none" fill-rule="evenodd"><g transform="translate(534)"><path d="M95.377 285.863l55.583-29.17 53.044 27.837c23.35-9.536 43.716-24.856 59.31-44.176l-9.954-57.927 42.492-41.346c-1.136-25.59-8.795-49.49-21.357-70.08l-60.248-8.738-28.37-57.38C173.788 1.698 161.094 0 148 0a148.84 148.84 0 0 0-31.166 3.282l-29.16 58.98-66.74 9.68A146.655 146.655 0 0 0 .49 135.653l48.072 46.775-10.948 63.72c15.652 17.483 35.412 31.225 57.765 39.716z" stroke="#FFF" stroke-width="7" fill="#000"/><path d="M107.5 203.823V90.778h-8.815c-2.938 3.284-9.852 7.605-16.42 8.815v9.853c2.938-.346 9.852-2.074 12.963-3.457v97.833H107.5zm15.903-24.372v.692c0 12.964 4.494 25.064 22.125 25.064 20.915 0 23.335-15.21 23.335-36.99V117.57c0-18.668-8.124-27.484-22.99-27.484-15.902 0-23.507 10.2-23.507 26.793v16.42c0 15.556 5.013 26.273 19.532 26.273 8.297 0 12.446-3.284 14.866-8.47v20.224c0 18.15-2.593 23.508-11.063 23.508-6.567 0-10.024-4.494-10.024-14.174v-1.21h-12.273zM145.7 100.46c7.952 0 11.064 5.358 11.064 15.73v12.79c0 11.408-2.247 19.705-11.754 19.705-8.816 0-10.37-7.605-10.37-15.383v-17.46c0-10.888 3.8-15.382 11.06-15.382zm29.213 15.383l17.458 42.523-17.975 45.46h12.963c5.877-17.285 10.2-29.557 11.927-34.743h.173c1.383 4.667 4.84 15.902 11.754 34.743h13.137l-17.805-47.016 17.63-40.966h-12.79c-5.358 14.867-9.68 25.065-11.58 31.115h-.174c-1.555-4.84-5.012-13.828-11.234-31.114h-13.483z" fill="#FFC937"/></g><path d="M57.045 215.577v7.937c0 17.857-2.55 30.613-17.29 30.613-14.174 0-18.425-12.472-18.425-31.464v-98.075c0-16.723 3.684-28.062 17.857-28.062 14.74 0 17.29 12.472 17.29 27.495v8.788h20.41v-7.37c0-24.66-5.67-47.336-37.416-47.336-25.794 0-38.833 16.724-38.833 47.053v96.374c0 27.778 5.67 51.02 38.55 51.02 34.298 0 38.55-26.36 38.55-50.454v-6.52H57.045zm73.414-92.123c-23.527 0-38.267 15.024-38.267 42.802v61.51c0 30.896 13.89 44.502 37.416 44.502 23.242 0 37.982-13.89 37.982-45.353V166.54c0-27.212-13.04-43.086-37.133-43.086zm-.568 17.858c12.756 0 17.29 10.488 17.29 24.66v62.36c0 18.14-5.952 25.795-17.29 25.795-11.905 0-17.29-9.92-17.29-25.795v-62.36c0-15.59 5.102-24.66 17.29-24.66zM189.984 270h20.126v-95.24c0-20.976 3.685-32.88 18.99-32.88 13.607 0 15.308 11.62 15.308 23.81V270h20.125V160.587c0-20.976-6.52-37.133-28.062-37.133-14.172 0-22.675 6.803-26.36 15.307V72.15h-20.126V270zm135.208-146.546c-23.527 0-38.266 15.024-38.266 42.802v61.51c0 30.896 13.89 44.502 37.415 44.502 23.245 0 37.984-13.89 37.984-45.353V166.54c0-27.212-13.04-43.086-37.132-43.086zm-.567 17.858c12.755 0 17.29 10.488 17.29 24.66v62.36c0 18.14-5.952 25.795-17.29 25.795-11.905 0-17.29-9.92-17.29-25.795v-62.36c0-15.59 5.1-24.66 17.29-24.66zm109.98-17.574c-12.472.283-24.944 6.803-30.33 24.377 0-9.637-.283-18.708-.567-22.393h-19.274c.283 12.756.283 25.794.283 49.038V270h20.125v-84.753c0-26.077 12.19-36.565 29.763-36.565v-24.944zm.567 19.842h16.44v100.626c0 21.826 9.92 27.778 23.81 27.778 5.102 0 11.338-.567 15.59-2.267v-15.59c-1.984.567-6.236.85-8.787.85-9.354 0-10.488-7.086-10.488-14.456v-96.94h20.41v-17.858h-20.41V90.29h-20.125v35.432h-16.44v17.858z" fill="#FFF"/></g></symbol><symbol viewBox="0 0 834 294" id="cohort-19-yellow"><title>cohort-19-yellow</title><g transform="translate(0 4)" fill="none" fill-rule="evenodd"><g transform="translate(534)"><path d="M95.377 285.863l55.583-29.17 53.044 27.837c23.35-9.536 43.716-24.856 59.31-44.176l-9.954-57.927 42.492-41.346c-1.136-25.59-8.795-49.49-21.357-70.08l-60.248-8.738-28.37-57.38C173.788 1.698 161.094 0 148 0a148.84 148.84 0 0 0-31.166 3.282l-29.16 58.98-66.74 9.68A146.655 146.655 0 0 0 .49 135.653l48.072 46.775-10.948 63.72c15.652 17.483 35.412 31.225 57.765 39.716z" stroke="#000" stroke-width="7" fill="#FFC937"/><path d="M107.5 203.823V90.778h-8.815c-2.938 3.284-9.852 7.605-16.42 8.815v9.853c2.938-.346 9.852-2.074 12.963-3.457v97.833H107.5zm15.903-24.372v.692c0 12.964 4.494 25.064 22.125 25.064 20.915 0 23.335-15.21 23.335-36.99V117.57c0-18.668-8.124-27.484-22.99-27.484-15.902 0-23.507 10.2-23.507 26.793v16.42c0 15.556 5.013 26.273 19.532 26.273 8.297 0 12.446-3.284 14.866-8.47v20.224c0 18.15-2.593 23.508-11.063 23.508-6.567 0-10.024-4.494-10.024-14.174v-1.21h-12.273zM145.7 100.46c7.952 0 11.064 5.358 11.064 15.73v12.79c0 11.408-2.247 19.705-11.754 19.705-8.816 0-10.37-7.605-10.37-15.383v-17.46c0-10.888 3.8-15.382 11.06-15.382zm29.213 15.383l17.458 42.523-17.975 45.46h12.963c5.877-17.285 10.2-29.557 11.927-34.743h.173c1.383 4.667 4.84 15.902 11.754 34.743h13.137l-17.805-47.016 17.63-40.966h-12.79c-5.358 14.867-9.68 25.065-11.58 31.115h-.174c-1.555-4.84-5.012-13.828-11.234-31.114h-13.483z" fill="#000"/></g><path d="M57.045 215.577v7.937c0 17.857-2.55 30.613-17.29 30.613-14.174 0-18.425-12.472-18.425-31.464v-98.075c0-16.723 3.684-28.062 17.857-28.062 14.74 0 17.29 12.472 17.29 27.495v8.788h20.41v-7.37c0-24.66-5.67-47.336-37.416-47.336-25.794 0-38.833 16.724-38.833 47.053v96.374c0 27.778 5.67 51.02 38.55 51.02 34.298 0 38.55-26.36 38.55-50.454v-6.52H57.045zm73.414-92.123c-23.527 0-38.267 15.024-38.267 42.802v61.51c0 30.896 13.89 44.502 37.416 44.502 23.242 0 37.982-13.89 37.982-45.353V166.54c0-27.212-13.04-43.086-37.133-43.086zm-.568 17.858c12.756 0 17.29 10.488 17.29 24.66v62.36c0 18.14-5.952 25.795-17.29 25.795-11.905 0-17.29-9.92-17.29-25.795v-62.36c0-15.59 5.102-24.66 17.29-24.66zM189.984 270h20.126v-95.24c0-20.976 3.685-32.88 18.99-32.88 13.607 0 15.308 11.62 15.308 23.81V270h20.125V160.587c0-20.976-6.52-37.133-28.062-37.133-14.172 0-22.675 6.803-26.36 15.307V72.15h-20.126V270zm135.208-146.546c-23.527 0-38.266 15.024-38.266 42.802v61.51c0 30.896 13.89 44.502 37.415 44.502 23.245 0 37.984-13.89 37.984-45.353V166.54c0-27.212-13.04-43.086-37.132-43.086zm-.567 17.858c12.755 0 17.29 10.488 17.29 24.66v62.36c0 18.14-5.952 25.795-17.29 25.795-11.905 0-17.29-9.92-17.29-25.795v-62.36c0-15.59 5.1-24.66 17.29-24.66zm109.98-17.574c-12.472.283-24.944 6.803-30.33 24.377 0-9.637-.283-18.708-.567-22.393h-19.274c.283 12.756.283 25.794.283 49.038V270h20.125v-84.753c0-26.077 12.19-36.565 29.763-36.565v-24.944zm.567 19.842h16.44v100.626c0 21.826 9.92 27.778 23.81 27.778 5.102 0 11.338-.567 15.59-2.267v-15.59c-1.984.567-6.236.85-8.787.85-9.354 0-10.488-7.086-10.488-14.456v-96.94h20.41v-17.858h-20.41V90.29h-20.125v35.432h-16.44v17.858z" fill="#FFF"/></g></symbol><symbol viewBox="0 0 492 477" id="cohort-logo-icon"><title>cohort-logo-icon</title><g transform="translate(3 4)" fill="none" fill-rule="evenodd"><path d="M156.277 468.775l91.073-47.834 86.913 45.65c38.26-15.638 71.63-40.76 97.18-72.444l-16.31-94.99 69.625-67.803c-1.862-41.966-14.41-81.156-34.994-114.92L351.046 102.1 304.564 8.008C284.754 2.783 263.952 0 242.5 0c-17.518 0-34.602 1.856-51.066 5.38l-47.78 96.72-109.35 15.876A240.632 240.632 0 0 0 .8 222.45l78.766 76.705-17.94 104.49c25.648 28.67 58.025 51.206 94.65 65.13z" stroke="#000" stroke-width="7" fill="#FFC937"/><path d="M176.176 333.98V148.6H161.72c-4.818 5.386-16.156 12.473-26.928 14.457v16.157c4.82-.567 16.157-3.402 21.26-5.67V333.98h20.124zm26.078-39.968v1.134c0 21.26 7.37 41.1 36.282 41.1 34.298 0 38.267-24.943 38.267-60.658v-83.052c0-30.613-13.323-45.07-37.7-45.07-26.078 0-38.55 16.725-38.55 43.936v26.928c0 25.51 8.22 43.085 32.03 43.085 13.607 0 20.41-5.385 24.378-13.89v33.165c0 29.763-4.25 38.55-18.14 38.55-10.77 0-16.44-7.37-16.44-23.243v-1.985h-20.126zm36.566-129.538c13.04 0 18.14 8.787 18.14 25.794v20.976c0 18.708-3.684 32.314-19.274 32.314-14.456 0-17.007-12.472-17.007-25.228V189.7c0-17.856 6.235-25.226 18.14-25.226zm47.903 25.227l28.63 69.73-29.48 74.55h21.26c9.636-28.346 16.723-48.47 19.557-56.975h.284c2.267 7.653 7.937 26.078 19.275 56.974h21.54l-29.195-77.1 28.913-67.18h-20.976c-8.787 24.38-15.873 41.102-18.99 51.023h-.285c-2.55-7.937-8.22-22.676-18.424-51.022h-22.11z" fill="#000"/></g></symbol><symbol viewBox="0 0 834 294" id="cohort-yellow-border"><title>cohort-yellow-border@3x</title><g transform="translate(-9 4)" fill="none" fill-rule="evenodd"><g transform="translate(543)"><path d="M95.377 285.863l55.583-29.17 53.044 27.837c23.35-9.536 43.716-24.856 59.31-44.176l-9.954-57.927 42.492-41.346c-1.136-25.59-8.795-49.49-21.357-70.08l-60.248-8.738-28.37-57.38C173.788 1.698 161.094 0 148 0a148.84 148.84 0 0 0-31.166 3.282l-29.16 58.98-66.74 9.68A146.655 146.655 0 0 0 .49 135.653l48.072 46.775-10.948 63.72c15.652 17.483 35.412 31.225 57.765 39.716z" stroke="#FFC937" stroke-width="7" fill="#000"/><text font-family="AcuminProExtraCond-Medium, Acumin Pro ExtraCondensed" font-size="172.852" font-style="condensed" font-weight="400" fill="#FFF"><tspan x="81.4" y="203.823">19x</tspan></text></g><text font-family="AcuminProExtraCond-Medium, Acumin Pro ExtraCondensed" font-size="283.454" font-style="condensed" font-weight="400" fill="#FFF"><tspan x="0" y="270">Cohort</tspan></text></g></symbol><symbol viewBox="0 0 48 48" id="collage"><path fill="#FFC107" d="M38 42H10c-2.2 0-4-1.8-4-4V10c0-2.2 1.8-4 4-4h28c2.2 0 4 1.8 4 4v28c0 2.2-1.8 4-4 4z"/><path fill="#4CAF50" d="M38 6H24v22h18V10c0-2.2-1.8-4-4-4z"/><path fill="#FF4081" d="M6 38c0 2.2 1.8 4 4 4h14V20.1H6V38z"/><path fill="#A0F" d="M24 20.1V6H10c-2.2 0-4 1.8-4 4v10.1h18z"/><path fill="#263238" d="M42 27H25V6h-2v13H6v2h17v21h2V29h17z"/></symbol><symbol viewBox="0 0 48 48" id="computer"><path fill="#CFD8DC" d="M42 41a1 1 0 0 1-1 1H7a1 1 0 0 1-1-1v-9h36v9z"/><path fill="#546E7A" d="M6 6h36v26H6z"/><path fill="#BBDEFB" d="M8 8h32v21H8z"/><circle fill="#FF1744" cx="37" cy="37" r="2"/><path fill="#78909C" d="M9 36h18v2H9z"/></symbol><symbol viewBox="0 0 48 48" id="cool"><circle fill="#FFCA28" cx="24" cy="24" r="19"/><path fill="none" stroke="#B76C09" stroke-width="2" d="M16 33s3 1 8 1c9 0 10-4 10-4"/><path fill="#37474F" d="M22 21c0 1.104 0 6-6 6-4 0-7-4-7-6s1-3 3-3h7c1.104 0 3 1 3 3zM26 21c0 1.104 0 6 6 6 4 0 7-4 7-6s-1-3-3-3h-7c-1.104 0-3 1-3 3z"/><path fill="none" stroke="#37474F" stroke-width="2" d="M21 22s0-2 3-2 3 2 3 2"/><path fill="none" stroke="#37474F" stroke-width="2" stroke-linecap="round" d="M10 20l-4-1M38 20l4-1"/></symbol><symbol viewBox="0 0 48 48" id="counselor"><g fill="#C5CAE9"><path d="M10 36h4v8h-4zM34 36h4v8h-4z"/></g><path fill="#F44336" d="M42 39H6v-4a3 3 0 0 1 3-3h30a3 3 0 0 1 3 3v4z"/><path fill="#37474F" d="M32.96 31.105A2.493 2.493 0 0 0 30.5 29h-13a2.5 2.5 0 0 0-2.5 2.5c0 .242.045.472.11.693.005.02.005.04.01.06l2.964 10.32a2 2 0 0 0 3.832-1.147L20 33l4.014-1L28 33l-1.916 8.426a2 2 0 1 0 3.832 1.148l3.028-10.555c0-.007.004-.013.005-.02.107-.354.097-.645.01-.895z"/><path fill="#8BC34A" d="M32.99 27.896c-.004-.054-.005-.11-.016-.16-.012-.055-.032-.106-.05-.16-.014-.04-.023-.086-.04-.127-.004-.008-.005-.017-.008-.023L31.98 22c-.485-3.875-3.89-7-8-7-4.107 0-7.58 3.203-8 7l-.872 5c-.015.034-.014.084-.014.132a1.497 1.497 0 0 0 .866 1.98l.002.003c.17.387 6.54 2.308 6.54 2.308.158.053.318.077.475.077.383 0 .738-.16 1.014-.418.276.257.632.418 1.015.418.157 0 .316-.024.475-.077l6.5-1.964.012-.007c.09-.03.174-.07.255-.115l.027-.015c.08-.048.154-.104.224-.165.008-.007.016-.012.023-.02.07-.064.135-.136.19-.213l.014-.016c.176-.246.28-.545.28-.87v-.004c.002-.046-.008-.093-.013-.14z"/><path fill="#558B2F" d="M27.98 20l-.8 5.498-3.188 1.148-3.188-1.148L19.98 20l-1.5 6.785 4.973 1.792c.212.07.396.187.55.33.15-.14.32-.26.528-.33l4.976-1.792L27.98 20z"/><path fill="#F1F8E9" d="M25.98 15.258c-.066.534-.394 1.742-2.02 1.742-1.623 0-1.903-1.204-1.95-1.74a7.95 7.95 0 0 0-1.9.752c.125.56.385 1.23.938 1.816.5.535 1.415 1.172 2.912 1.172 1.48 0 2.397-.622 2.908-1.144.587-.6.866-1.29 1.005-1.854a7.954 7.954 0 0 0-1.893-.744z"/><path fill="#FF9800" d="M26 12h-4v3s-.124 2 1.96 2S26 15 26 15v-3z"/><path fill="#FFB74D" d="M24 14.905c-2.758 0-5-2.243-5-5s2.242-5 5-5 5 2.243 5 5-2.242 5-5 5"/><path fill="#424242" d="M23.788 3.02c-2.438.22-4.78 1.93-4.78 5.574v1.426l1 1v-3l6.31-2.2 1.69 2.2v3l1-1V8.817c0-2.414-.136-4.206-3-4.798l-.486-1h-1.734z"/></symbol><symbol viewBox="0 0 48 48" id="design"><path fill="#42A5F5" d="M4 13l9-9 31 31-9 9z"/><g fill="#1565C0"><path d="M16.177 16.18l-1.414-1.416 4.5-4.5 1.415 1.414zM33.323 24.323l1.415 1.415-2.5 2.5-1.415-1.415zM16.293 7.293l1.414 1.414-2.5 2.5-1.414-1.414zM39.353 30.352l1.415 1.415-2.5 2.5-1.415-1.414zM22.293 13.293l1.414 1.414-2.5 2.5-1.414-1.414zM31.822 31.826l4.502-4.5 1.414 1.414-4.502 4.5z"/></g><path fill="#E57373" d="M42.583 9.067l-3.65-3.65a1.426 1.426 0 0 0-2.016 0L35.2 7.137l5.664 5.664 1.72-1.717a1.427 1.427 0 0 0 0-2.016"/><path fill="#FF9800" d="M6.906 35.427l25.46-25.46 5.666 5.665-25.46 25.46z"/><path fill="#B0BEC5" d="M40.863 12.8l-2.832 2.835-5.666-5.664 2.83-2.833z"/><path fill="#FFC107" d="M6.905 35.43L5 43l7.57-1.906z"/><path fill="#37474F" d="M5.965 39.172L5 43l3.827-.965z"/></symbol><symbol viewBox="0 0 48 48" id="dumbbell"><path fill="#90A4AE" d="M0 22h48v4H0z"/><path fill="#BF360C" d="M42 34c0 .6-.4 1-1 1h-3c-.6 0-1-.4-1-1V14c0-.6.4-1 1-1h3c.6 0 1 .4 1 1v20zM6 34c0 .6.4 1 1 1h3c.6 0 1-.4 1-1V14c0-.6-.4-1-1-1H7c-.6 0-1 .4-1 1v20z"/><path fill="#FF5722" d="M37 38c0 .6-.4 1-1 1h-3c-.6 0-1-.4-1-1V10c0-.6.4-1 1-1h3c.6 0 1 .4 1 1v28zm-26 0c0 .6.4 1 1 1h3c.6 0 1-.4 1-1V10c0-.6-.4-1-1-1h-3c-.6 0-1 .4-1 1v28z"/><path fill="#607D8B" d="M2 22h2v4H2v-4zm42 0h2v4h-2v-4z"/></symbol><symbol viewBox="0 0 48 48" id="employee_card"><path fill="#455A64" d="M36 6H26c0 1.1-.9 2-2 2s-2-.9-2-2H12c-2.2 0-4 1.8-4 4v32c0 2.2 1.8 4 4 4h24c2.2 0 4-1.8 4-4V10c0-2.2-1.8-4-4-4"/><path fill="#FFF" d="M36 43H12c-.6 0-1-.4-1-1V10c0-.6.4-1 1-1h24c.6 0 1 .4 1 1v32c0 .6-.4 1-1 1"/><path fill="#90A4AE" d="M24 2c-2.2 0-4 1.8-4 4v4c0 1.1.9 2 2 2h4c1.1 0 2-.9 2-2V6c0-2.2-1.8-4-4-4zm0 2c1.1 0 2 .9 2 2s-.9 2-2 2-2-.9-2-2 .9-2 2-2z"/><path fill="#03A9F4" d="M16 37h16v2H16z"/><path fill="#FF9800" d="M24 32c-2.4 0-2.5-3.5-2.5-3.5v-3h5v3S26.4 32 24 32"/><path fill="#FFA726" d="M29.5 22.5c0 .6-.4 1-1 1s-1-.4-1-1 .4-1 1-1 1 .4 1 1m-9 0c0-.6-.4-1-1-1s-1 .4-1 1 .4 1 1 1 1-.4 1-1"/><path fill="#FFB74D" d="M28.5 19.5c0-3.8-9-2.5-9 0V23c0 2.5 2 4.5 4.5 4.5s4.5-2 4.5-4.5v-3.5z"/><path fill="#424242" d="M24 15c-3 0-5 2.5-5 5.5v1.1l1 .9V20l6-2 2 2v2.5l1-.9v-1.1c0-2-.5-4-3-4.5l-.5-1H24z"/><path fill="#784719" d="M25.5 22.5c0-.3.2-.5.5-.5s.5.2.5.5-.2.5-.5.5-.5-.2-.5-.5m-4 0c0 .3.2.5.5.5s.5-.2.5-.5-.2-.5-.5-.5-.5.2-.5.5"/><path fill="#2196F3" d="M26.5 28.5s-.9 1-2.5 1-2.5-1-2.5-1-5.5 1-5.5 6.5h16c0-5.5-5.5-6.5-5.5-6.5"/></symbol><symbol viewBox="0 0 48 48" id="for_experienced"><path fill="#F8BBD0" d="M31 44v-4.6l2.6.5c2.9.6 5.6-1.5 5.8-4.4L40 29l2.9-1.2c1-.4 1.4-1.6.8-2.6L40 19c-.6-7.6-4.9-15-16-15C12.6 4 7 12.4 7 21c0 3.7 1.3 6.9 3.3 9.6 1.8 2.5 2.7 5.5 2.7 8.5v4.8h18z"/><path fill="#E91E63" d="M30.7 22.9c0-.3.1-.6.1-.9s0-.6-.1-.9l1.9-1.4c.2-.1.2-.4.1-.6l-1.8-3.2c-.1-.2-.4-.3-.6-.2l-2.1 1c-.5-.4-1-.7-1.6-.9l-.2-2.3c0-.2-.2-.4-.4-.4h-3.7c-.2 0-.4.2-.4.4l-.2 2.3c-.6.2-1.1.6-1.6.9l-2.1-1c-.2-.1-.5 0-.6.2l-1.8 3.2c-.1.2-.1.5.1.6l1.9 1.4c0 .3-.1.6-.1.9s0 .6.1.9l-1.9 1.4c-.2.1-.2.4-.1.6l1.8 3.2c.1.2.4.3.6.2l2.1-1c.5.4 1 .7 1.6.9l.2 2.3c0 .2.2.4.4.4H26c.2 0 .4-.2.4-.4l.2-2.3c.6-.2 1.1-.6 1.6-.9l2.1 1c.2.1.5 0 .6-.2l1.8-3.2c.1-.2.1-.5-.1-.6l-1.9-1.4zM24 25.5c-1.9 0-3.5-1.5-3.5-3.5 0-1.9 1.5-3.5 3.5-3.5 1.9 0 3.5 1.5 3.5 3.5 0 1.9-1.6 3.5-3.5 3.5z"/></symbol><symbol viewBox="0 0 50 50" id="menu"><path fill="none" stroke="currentColor" stroke-width="2" stroke-miterlimit="10" d="M50 25H0M50 10H0M0 40h50"/></symbol><symbol viewBox="0 0 50 50" id="menu_filled"><path fill="none" stroke="currentColor" stroke-width="5" stroke-miterlimit="10" d="M50 25H0M50 10H0M0 40h50"/></symbol><symbol viewBox="0 0 48 48" id="paint_palette"><path fill="#FFC107" d="M24.64 4C16.04 4 6.21 8.954 6.21 22.947 6.21 33.107 13.84 44 25.52 44h.174c4.385-.08 9.105-2.918 9.105-8.96 0-1.156-.432-2.158-.81-3.04-.102-.234-.2-.463-.288-.695-.864-2.175.09-2.97 2.33-4.565 2.536-1.806 6.012-4.278 5.967-10.82C42 12.033 37.755 4 24.64 4zm.56 35.2c-2.242 0-4.002-1.76-4.002-4s1.76-4 4-4a3.96 3.96 0 0 1 4 4c0 2.24-1.76 4-4 4z"/><circle fill="#9C27B0" cx="34.5" cy="16.5" r="3.5"/><circle fill="#2196F3" cx="25.5" cy="10.5" r="3.5"/><circle fill="#4CAF50" cx="15.5" cy="15.5" r="3.5"/><circle fill="#FF3D00" cx="14.5" cy="26.5" r="3.5"/></symbol><symbol viewBox="0 0 48 48" id="thumb_up"><g fill="#FFCC80"><path d="M20.96 18H36v24H20.96c-3.248 0-5.88-2.686-5.88-5.997V24c0-3.315 2.632-6 5.88-6z"/><path d="M32 21a3 3 0 0 0 3 3h3a3 3 0 0 0 0-6h-3a3 3 0 0 0-3 3zM29 27a3 3 0 0 0 3 3h6a3 3 0 0 0 0-6h-6a3 3 0 0 0-3 3zM28 33a3 3 0 0 0 3 3h6a3 3 0 0 0 0-6h-6a3 3 0 0 0-3 3zM27 39a3 3 0 0 0 3 3h6a3 3 0 0 0 0-6h-6a3 3 0 0 0-3 3zM22.526 13.566a8.453 8.453 0 0 0 1.916-3.63l.724-2.955c.14-.578.65-.98 1.23-.98h.676c1.78 0 2.968 2 2.968 3.294v1.39c0 2.83-.453 5.61-1.813 8.073L25.6 23.52l-8.192-4.266 5.118-5.688z"/></g><g fill="#F2A25A"><path d="M39 24h-4a1 1 0 0 0 0 2l4-2zM38 30h-4a1 1 0 0 0 0 2l4-2zM37 36h-4a1 1 0 0 0 0 2l4-2z"/></g><path fill="#009688" d="M6.04 19h10v22h-10z"/><circle fill="#B2DFDB" cx="11.04" cy="36" r="2"/></symbol></svg>