<svg width="1103" height="1070" viewBox="0 0 1103 1070" xmlns="http://www.w3.org/2000/svg"><title>cohort-logo-icon</title><g fill="none" fill-rule="evenodd"><path d="M360.065 1053.501l201.675-105.97 192.464 101.13c84.725-34.643 158.62-90.3 215.196-160.488l-36.113-210.44 154.178-150.204c-4.125-92.97-31.913-179.79-77.493-254.59L791.37 241.19 688.436 32.739C644.569 21.165 598.505 15 551 15c-38.793 0-76.624 4.111-113.083 11.921l-105.806 214.27-242.15 35.167C48.81 345.04 22.585 423.682 15.771 507.806l174.422 169.927-39.724 231.483c56.794 63.516 128.49 113.44 209.596 144.285z" stroke="#000" stroke-width="29" fill="#FFC937"/><text font-family="AcuminProExtraCond-Medium, Acumin Pro ExtraCondensed" font-size="627.689" font-style="condensed" font-weight="400" fill="#000" transform="translate(15 15)"><tspan x="294.35" y="740.089">19x</tspan></text></g></svg>