<svg width="834" height="294" viewBox="0 0 834 294" xmlns="http://www.w3.org/2000/svg"><title>cohort-19-text-yellow</title><g fill="none" fill-rule="evenodd"><path d="M629.377 289.863l55.583-29.17 53.044 27.837c23.35-9.536 43.716-24.856 59.31-44.176l-9.954-57.927 42.492-41.346c-1.136-25.591-8.795-49.49-21.357-70.08l-60.248-8.739-28.369-57.38C707.788 5.698 695.093 4 682 4a148.84 148.84 0 0 0-31.166 3.282l-29.16 58.98-66.739 9.68a146.655 146.655 0 0 0-20.447 63.71l48.072 46.775-10.948 63.719c15.652 17.484 35.412 31.226 57.765 39.717z" stroke="#FFF" stroke-width="7" fill="#000"/><path d="M641.5 207.823V94.778h-8.815c-2.938 3.284-9.852 7.605-16.42 8.815v9.853c2.938-.346 9.852-2.074 12.963-3.457v97.834h12.273zm15.903-24.372v.691c0 12.964 4.494 25.064 22.125 25.064 20.915 0 23.335-15.21 23.335-36.99V121.57c0-18.668-8.124-27.484-22.99-27.484-15.902 0-23.507 10.199-23.507 26.793v16.42c0 15.557 5.013 26.274 19.532 26.274 8.297 0 12.446-3.284 14.866-8.47v20.224c0 18.15-2.593 23.508-11.063 23.508-6.568 0-10.025-4.494-10.025-14.174v-1.21h-12.273zm22.298-78.993c7.951 0 11.063 5.358 11.063 15.73v12.79c0 11.408-2.247 19.705-11.754 19.705-8.816 0-10.371-7.605-10.371-15.383V119.84c0-10.89 3.802-15.383 11.062-15.383zm29.212 15.383l17.458 42.522-17.976 45.46h12.963c5.877-17.285 10.199-29.557 11.927-34.743h.173c1.383 4.667 4.84 15.902 11.754 34.743h13.137l-17.804-47.016 17.631-40.966h-12.791c-5.358 14.866-9.68 25.064-11.581 31.114h-.173c-1.556-4.84-5.013-13.828-11.235-31.114h-13.483z" fill="#FFC937"/><path d="M57.045 219.577v7.937c0 17.857-2.551 30.613-17.291 30.613-14.173 0-18.424-12.472-18.424-31.464v-98.075c0-16.723 3.684-28.062 17.857-28.062 14.74 0 17.29 12.472 17.29 27.495v8.787h20.41v-7.37c0-24.66-5.67-47.336-37.416-47.336-25.795 0-38.834 16.724-38.834 47.053v96.374c0 27.779 5.67 51.022 38.55 51.022 34.298 0 38.55-26.361 38.55-50.455v-6.52H57.045zm73.414-92.123c-23.526 0-38.266 15.024-38.266 42.802v61.51c0 30.896 13.89 44.502 37.416 44.502 23.243 0 37.983-13.89 37.983-45.353V170.54c0-27.211-13.04-43.085-37.133-43.085zm-.567 17.858c12.756 0 17.29 10.488 17.29 24.66v62.36c0 18.141-5.952 25.795-17.29 25.795-11.905 0-17.29-9.921-17.29-25.795v-62.36c0-15.59 5.102-24.66 17.29-24.66zM189.984 274h20.126v-95.24c0-20.976 3.685-32.881 18.991-32.881 13.606 0 15.307 11.622 15.307 23.81V274h20.125V164.587c0-20.976-6.52-37.133-28.062-37.133-14.173 0-22.676 6.803-26.361 15.307V76.149h-20.126V274zm135.208-146.546c-23.527 0-38.266 15.024-38.266 42.802v61.51c0 30.896 13.889 44.502 37.415 44.502 23.244 0 37.983-13.89 37.983-45.353V170.54c0-27.211-13.039-43.085-37.132-43.085zm-.567 17.858c12.755 0 17.29 10.488 17.29 24.66v62.36c0 18.141-5.952 25.795-17.29 25.795-11.905 0-17.29-9.921-17.29-25.795v-62.36c0-15.59 5.101-24.66 17.29-24.66zm109.98-17.574c-12.472.283-24.944 6.803-30.33 24.377 0-9.637-.283-18.708-.567-22.393h-19.274c.283 12.756.283 25.794.283 49.038V274h20.125v-84.753c0-26.077 12.189-36.565 29.763-36.565v-24.944zm.567 19.842h16.44v100.626c0 21.826 9.921 27.778 23.81 27.778 5.102 0 11.338-.567 15.59-2.267v-15.59c-1.984.567-6.236.85-8.787.85-9.354 0-10.488-7.086-10.488-14.456V147.58h20.409v-17.858h-20.409V94.29h-20.125v35.432h-16.44v17.858z" fill="#FFF"/></g></svg>