<svg width="492" height="477" viewBox="0 0 492 477" xmlns="http://www.w3.org/2000/svg"><title>cohort-logo-icon@1x</title><g fill="none" fill-rule="evenodd"><path d="M159.277 472.775l91.073-47.834 86.913 45.649c38.26-15.638 71.63-40.761 97.18-72.444l-16.309-94.991 69.624-67.802c-1.862-41.966-14.411-81.156-34.994-114.92L354.046 106.1l-46.482-94.094C287.754 6.783 266.952 4 245.5 4c-17.518 0-34.602 1.856-51.066 5.381l-47.78 96.72-109.351 15.875A240.632 240.632 0 0 0 3.8 226.45l78.766 76.705-17.939 104.49c25.647 28.67 58.024 51.206 94.65 65.13z" stroke="#000" stroke-width="7" fill="#FFC937"/><text font-family="AcuminProExtraCond-Medium, Acumin Pro ExtraCondensed" font-size="283.454" font-style="condensed" font-weight="400" fill="#000" transform="translate(3 4)"><tspan x="133.375" y="333.979">19x</tspan></text></g></svg>