<svg width="492" height="477" viewBox="0 0 492 477" xmlns="http://www.w3.org/2000/svg"><title>cohort-logo-icon</title><g fill="none" fill-rule="evenodd"><path d="M159.277 472.775l91.073-47.834 86.913 45.649c38.26-15.638 71.63-40.761 97.18-72.444l-16.309-94.991 69.624-67.802c-1.862-41.966-14.411-81.156-34.994-114.92L354.046 106.1l-46.482-94.094C287.754 6.783 266.952 4 245.5 4c-17.518 0-34.602 1.856-51.066 5.381l-47.78 96.72-109.351 15.875A240.632 240.632 0 0 0 3.8 226.45l78.766 76.705-17.939 104.49c25.647 28.67 58.024 51.206 94.65 65.13z" stroke="#000" stroke-width="7" fill="#FFC937"/><path d="M179.176 337.98V152.6H164.72c-4.818 5.386-16.156 12.473-26.928 14.457v16.157c4.819-.567 16.157-3.402 21.26-5.67V337.98h20.124zm26.078-39.968v1.134c0 21.26 7.37 41.101 36.282 41.101 34.298 0 38.267-24.944 38.267-60.66v-83.051c0-30.613-13.323-45.07-37.7-45.07-26.078 0-38.55 16.725-38.55 43.936v26.928c0 25.511 8.22 43.085 32.03 43.085 13.607 0 20.41-5.385 24.378-13.889v33.164c0 29.763-4.252 38.55-18.141 38.55-10.771 0-16.44-7.37-16.44-23.243v-1.985h-20.126zm36.566-129.538c13.039 0 18.14 8.787 18.14 25.794v20.976c0 18.708-3.684 32.314-19.274 32.314-14.456 0-17.007-12.472-17.007-25.228v-28.629c0-17.857 6.236-25.227 18.14-25.227zm47.903 25.227l28.63 69.73-29.48 74.548h21.26c9.636-28.345 16.723-48.47 19.557-56.974h.284c2.267 7.653 7.937 26.078 19.275 56.974h21.542l-29.196-77.099 28.913-67.179h-20.976c-8.787 24.378-15.873 41.101-18.991 51.022h-.284c-2.55-7.937-8.22-22.676-18.424-51.022h-22.11z" fill="#000"/></g></svg>