<svg width="834" height="294" viewBox="0 0 834 294" xmlns="http://www.w3.org/2000/svg"><title>cohort-19-text-yellow</title><g fill="none" fill-rule="evenodd"><path d="M629.377 289.863l55.583-29.17 53.044 27.837c23.35-9.536 43.716-24.856 59.31-44.176l-9.954-57.927 42.492-41.346c-1.136-25.591-8.795-49.49-21.357-70.08l-60.248-8.739-28.369-57.38C707.788 5.698 695.093 4 682 4a148.84 148.84 0 0 0-31.166 3.282l-29.16 58.98-66.739 9.68a146.655 146.655 0 0 0-20.447 63.71l48.072 46.775-10.948 63.719c15.652 17.484 35.412 31.226 57.765 39.717z" stroke="#FFF" stroke-width="7" fill="#000"/><text font-family="AcuminProExtraCond-Medium, Acumin Pro ExtraCondensed" font-size="172.852" font-style="condensed" font-weight="400" fill="#FFC937" transform="translate(534 4)"><tspan x="81.4" y="203.823">19x</tspan></text><text font-family="AcuminProExtraCond-Medium, Acumin Pro ExtraCondensed" font-size="283.454" font-style="condensed" font-weight="400" fill="#FFF" transform="translate(-9 4)"><tspan x="0" y="270">Cohort</tspan></text></g></svg>