<svg xmlns="http://www.w3.org/2000/svg" width="48" height="48" viewBox="0 0 48 48"><circle fill="#FFCA28" cx="24" cy="24" r="19"/><path fill="none" stroke="#B76C09" stroke-width="2" d="M16 33s3 1 8 1c9 0 10-4 10-4"/><path fill="#37474F" d="M22 21c0 1.104 0 6-6 6-4 0-7-4-7-6s1-3 3-3h7c1.104 0 3 1 3 3zM26 21c0 1.104 0 6 6 6 4 0 7-4 7-6s-1-3-3-3h-7c-1.104 0-3 1-3 3z"/><path fill="none" stroke="#37474F" stroke-width="2" d="M21 22s0-2 3-2 3 2 3 2"/><path fill="none" stroke="#37474F" stroke-width="2" stroke-linecap="round" d="M10 20l-4-1M38 20l4-1"/></svg>