<svg xmlns="http://www.w3.org/2000/svg" width="48" height="48" viewBox="0 0 48 48"><g fill="#C5CAE9"><path d="M10 36h4v8h-4zM34 36h4v8h-4z"/></g><path fill="#F44336" d="M42 39H6v-4a3 3 0 0 1 3-3h30c1.656 0 3 1.344 3 3v4z"/><path fill="#37474F" d="M32.96 31.105A2.493 2.493 0 0 0 30.5 29h-13a2.5 2.5 0 0 0-2.5 2.5c0 .242.045.472.109.693.006.02.006.039.012.059l2.963 10.322a2 2 0 1 0 3.832-1.148L20 33l4.014-1L28 33l-1.916 8.426a2 2 0 0 0 3.832 1.148l3.028-10.555.005-.018V32c.108-.354.098-.645.011-.895z"/><path fill="#8BC34A" d="M32.991 27.896c-.005-.054-.006-.109-.017-.161-.012-.054-.032-.105-.049-.158-.015-.042-.024-.087-.042-.128-.003-.007-.004-.016-.007-.022L31.979 22c-.484-3.875-3.889-7-8-7-4.106 0-7.578 3.203-8 7l-.871 5c-.015.034-.014.084-.014.132a1.497 1.497 0 0 0 .866 1.979l.002.004c.171.387 6.541 2.308 6.541 2.308.157.053.317.077.474.077.383 0 .738-.161 1.014-.418a1.49 1.49 0 0 0 1.014.418c.157 0 .316-.024.475-.077l6.5-1.964.012-.006c.09-.031.174-.069.255-.115l.027-.015c.08-.048.154-.104.224-.165.008-.007.016-.012.023-.02.07-.064.134-.136.19-.213l.013-.016c.176-.245.281-.544.281-.869v-.004c.001-.046-.009-.093-.014-.14z"/><path fill="#558B2F" d="M27.979 20l-.799 5.498-3.188 1.148-3.188-1.148L19.979 20l-1.5 6.785 4.974 1.792c.212.07.396.187.549.331a1.43 1.43 0 0 1 .529-.331l4.975-1.792L27.979 20z"/><path fill="#F1F8E9" d="M25.98 15.258c-.066.534-.394 1.742-2.02 1.742-1.623 0-1.903-1.204-1.949-1.74a7.95 7.95 0 0 0-1.9.752c.124.561.384 1.229.937 1.816.501.535 1.415 1.172 2.912 1.172 1.479 0 2.397-.622 2.908-1.144.587-.6.866-1.29 1.005-1.854a7.954 7.954 0 0 0-1.893-.744z"/><path fill="#FF9800" d="M26 12h-4v3s-.124 2 1.959 2S26 15 26 15v-3z"/><path fill="#FFB74D" d="M24 14.905c-2.758 0-5-2.243-5-5s2.242-5 5-5 5 2.243 5 5-2.242 5-5 5"/><path fill="#424242" d="M23.788 3.02c-2.438.219-4.781 1.93-4.781 5.574v1.426l1 1v-3l6.31-2.201 1.69 2.201v3l1-1V8.817c0-2.414-.135-4.206-3-4.798l-.485-1-1.734.001z"/></svg>