<svg xmlns="http://www.w3.org/2000/svg" width="48" height="48" viewBox="0 0 48 48"><path fill="#42A5F5" d="M4 13l9-9 31 31-9 9z"/><g fill="#1565C0"><path d="M16.177 16.179l-1.414-1.415 4.5-4.5 1.415 1.414zM33.323 24.323l1.415 1.415-2.5 2.5-1.415-1.415zM16.293 7.293l1.414 1.414-2.5 2.5-1.414-1.414zM39.353 30.352l1.415 1.415-2.5 2.5-1.415-1.414zM22.293 13.293l1.414 1.414-2.5 2.5-1.414-1.414zM31.822 31.826l4.502-4.5 1.414 1.414-4.502 4.5z"/></g><path fill="#E57373" d="M42.583 9.067l-3.651-3.65a1.426 1.426 0 0 0-2.015 0l-1.718 1.72 5.665 5.664 1.719-1.718a1.427 1.427 0 0 0 0-2.016"/><path fill="#FF9800" d="M6.906 35.427l25.46-25.46 5.666 5.665-25.46 25.46z"/><path fill="#B0BEC5" d="M40.863 12.8l-2.832 2.835-5.667-5.664 2.831-2.834z"/><path fill="#FFC107" d="M6.905 35.429L5 43l7.571-1.906z"/><path fill="#37474F" d="M5.965 39.172L5 43l3.827-.965z"/></svg>