<svg xmlns="http://www.w3.org/2000/svg" viewBox="0 0 48 48"><path fill="#90A4AE" d="M0 22h48v4H0z"/><path fill="#BF360C" d="M42 34c0 .6-.4 1-1 1h-3c-.6 0-1-.4-1-1V14c0-.6.4-1 1-1h3c.6 0 1 .4 1 1v20zM6 34c0 .6.4 1 1 1h3c.6 0 1-.4 1-1V14c0-.6-.4-1-1-1H7c-.6 0-1 .4-1 1v20z"/><path fill="#FF5722" d="M37 38c0 .6-.4 1-1 1h-3c-.6 0-1-.4-1-1V10c0-.6.4-1 1-1h3c.6 0 1 .4 1 1v28zm-26 0c0 .6.4 1 1 1h3c.6 0 1-.4 1-1V10c0-.6-.4-1-1-1h-3c-.6 0-1 .4-1 1v28z"/><path fill="#607D8B" d="M2 22h2v4H2v-4zm42 0h2v4h-2v-4z"/></svg>