<svg xmlns="http://www.w3.org/2000/svg" viewBox="0 0 48 48"><path fill="#455A64" d="M36 6H26c0 1.1-.9 2-2 2s-2-.9-2-2H12c-2.2 0-4 1.8-4 4v32c0 2.2 1.8 4 4 4h24c2.2 0 4-1.8 4-4V10c0-2.2-1.8-4-4-4"/><path fill="#FFF" d="M36 43H12c-.6 0-1-.4-1-1V10c0-.6.4-1 1-1h24c.6 0 1 .4 1 1v32c0 .6-.4 1-1 1"/><path fill="#90A4AE" d="M24 2c-2.2 0-4 1.8-4 4v4c0 1.1.9 2 2 2h4c1.1 0 2-.9 2-2V6c0-2.2-1.8-4-4-4zm0 2c1.1 0 2 .9 2 2s-.9 2-2 2-2-.9-2-2 .9-2 2-2z"/><path fill="#03A9F4" d="M16 37h16v2H16z"/><path fill="#FF9800" d="M24 32c-2.4 0-2.5-3.5-2.5-3.5v-3h5v3S26.4 32 24 32"/><path fill="#FFA726" d="M29.5 22.5c0 .6-.4 1-1 1s-1-.4-1-1 .4-1 1-1 1 .4 1 1m-9 0c0-.6-.4-1-1-1s-1 .4-1 1 .4 1 1 1 1-.4 1-1"/><path fill="#FFB74D" d="M28.5 19.5c0-3.8-9-2.5-9 0V23c0 2.5 2 4.5 4.5 4.5s4.5-2 4.5-4.5v-3.5z"/><path fill="#424242" d="M24 15c-3 0-5 2.5-5 5.5v1.1l1 .9V20l6-2 2 2v2.5l1-.9v-1.1c0-2-.5-4-3-4.5l-.5-1H24z"/><path fill="#784719" d="M25.5 22.5c0-.3.2-.5.5-.5s.5.2.5.5-.2.5-.5.5-.5-.2-.5-.5m-4 0c0 .3.2.5.5.5s.5-.2.5-.5-.2-.5-.5-.5-.5.2-.5.5"/><path fill="#2196F3" d="M26.5 28.5s-.9 1-2.5 1-2.5-1-2.5-1-5.5 1-5.5 6.5h16c0-5.5-5.5-6.5-5.5-6.5"/></svg>