<svg xmlns="http://www.w3.org/2000/svg" viewBox="0 0 48 48"><path fill="#F8BBD0" d="M31 44v-4.6l2.6.5c2.9.6 5.6-1.5 5.8-4.4L40 29l2.9-1.2c1-.4 1.4-1.6.8-2.6L40 19c-.6-7.6-4.9-15-16-15C12.6 4 7 12.4 7 21c0 3.7 1.3 6.9 3.3 9.6 1.8 2.5 2.7 5.5 2.7 8.5v4.8h18z"/><path fill="#E91E63" d="M30.7 22.9c0-.3.1-.6.1-.9s0-.6-.1-.9l1.9-1.4c.2-.1.2-.4.1-.6l-1.8-3.2c-.1-.2-.4-.3-.6-.2l-2.1 1c-.5-.4-1-.7-1.6-.9l-.2-2.3c0-.2-.2-.4-.4-.4h-3.7c-.2 0-.4.2-.4.4l-.2 2.3c-.6.2-1.1.6-1.6.9l-2.1-1c-.2-.1-.5 0-.6.2l-1.8 3.2c-.1.2-.1.5.1.6l1.9 1.4c0 .3-.1.6-.1.9s0 .6.1.9l-1.9 1.4c-.2.1-.2.4-.1.6l1.8 3.2c.1.2.4.3.6.2l2.1-1c.5.4 1 .7 1.6.9l.2 2.3c0 .2.2.4.4.4H26c.2 0 .4-.2.4-.4l.2-2.3c.6-.2 1.1-.6 1.6-.9l2.1 1c.2.1.5 0 .6-.2l1.8-3.2c.1-.2.1-.5-.1-.6l-1.9-1.4zM24 25.5c-1.9 0-3.5-1.5-3.5-3.5 0-1.9 1.5-3.5 3.5-3.5 1.9 0 3.5 1.5 3.5 3.5 0 1.9-1.6 3.5-3.5 3.5z"/></svg>