<svg xmlns="http://www.w3.org/2000/svg" width="48" height="48" viewBox="0 0 48 48"><g fill="#FFCC80"><path d="M20.959 18H36v24H20.959c-3.247 0-5.878-2.686-5.878-5.997V24c0-3.315 2.631-6 5.878-6z"/><path d="M32 21a3 3 0 0 0 3 3h3a3 3 0 1 0 0-6h-3a3 3 0 0 0-3 3zM29 27a3 3 0 0 0 3 3h6a3 3 0 1 0 0-6h-6a3 3 0 0 0-3 3zM28 33a3 3 0 0 0 3 3h6a3 3 0 1 0 0-6h-6a3 3 0 0 0-3 3zM27 39a3 3 0 0 0 3 3h6a3 3 0 1 0 0-6h-6a3 3 0 0 0-3 3zM22.526 13.566a8.453 8.453 0 0 0 1.916-3.631l.724-2.954A1.27 1.27 0 0 1 26.397 6h.675c1.781 0 2.968 2 2.968 3.294v1.391c0 2.829-.453 5.61-1.813 8.072l-2.626 4.763-8.193-4.266 5.118-5.688z"/></g><g fill="#F2A25A"><path d="M39 24h-4a1 1 0 1 0 0 2l4-2zM38 30h-4a1 1 0 1 0 0 2l4-2zM37 36h-4a1 1 0 1 0 0 2l4-2z"/></g><path fill="#009688" d="M6.04 19h10v22h-10z"/><circle fill="#B2DFDB" cx="11.04" cy="36" r="2"/></svg>