<?xml version="1.0" encoding="UTF-8" standalone="no"?>
<svg width="492px" height="477px" viewBox="0 0 492 477" version="1.1" xmlns="http://www.w3.org/2000/svg" xmlns:xlink="http://www.w3.org/1999/xlink">
    <!-- Generator: Sketch 3.8.2 (29753) - http://www.bohemiancoding.com/sketch -->
    <title>cohort-logo-icon@1x</title>
    <desc>Created with Sketch.</desc>
    <defs></defs>
    <g id="Page-1" stroke="none" stroke-width="1" fill="none" fill-rule="evenodd">
        <g id="Artboard-1" transform="translate(-155.000000, -162.000000)">
            <g id="cohort-logo-icon" transform="translate(158.000000, 166.000000)">
                <path d="M156.276964,468.774851 L247.35,420.940722 L334.263229,466.590003 C372.523858,450.95243 405.893317,425.829 431.442108,394.146408 L415.134202,299.154967 L484.758282,231.353179 C482.895818,189.387443 470.346867,150.19713 449.763997,116.432271 L351.046339,102.101476 L304.563546,8.00714025 C284.754293,2.78293001 263.952451,-2.84217094e-14 242.5,-2.84217094e-14 C224.98196,-2.84217094e-14 207.897768,1.85575001 191.433643,5.38120978 L143.653661,102.101476 L34.3028974,117.975873 C15.7192127,148.978411 3.87691112,184.477159 0.799653103,222.450392 L79.5657982,299.154967 L61.6271873,403.64505 C87.2744731,432.315906 119.650696,454.851347 156.276964,468.774851 Z" id="Combined-Shape" stroke="#000000" stroke-width="7" fill="#FFC937"></path>
                <text id="19x" font-family="AcuminProExtraCond-Medium, Acumin Pro ExtraCondensed" font-size="283.453608" font-style="condensed" font-weight="400" fill="#000000">
                    <tspan x="133.375" y="333.979381">19x</tspan>
                </text>
            </g>
        </g>
    </g>
</svg>