<?xml version="1.0" encoding="UTF-8" standalone="no"?>
<svg width="834px" height="294px" viewBox="0 0 834 294" version="1.1" xmlns="http://www.w3.org/2000/svg" xmlns:xlink="http://www.w3.org/1999/xlink">
    <!-- Generator: Sketch 3.8.2 (29753) - http://www.bohemiancoding.com/sketch -->
    <title>cohort-19-yellow</title>
    <desc>Created with Sketch.</desc>
    <defs></defs>
    <g id="Page-1" stroke="none" stroke-width="1" fill="none" fill-rule="evenodd">
        <g id="Artboard-1-Copy-6" transform="translate(-125.000000, -105.000000)">
            <g id="cohort-19-yellow" transform="translate(116.000000, 109.000000)">
                <g id="Group-Copy-5" transform="translate(543.000000, 0.000000)">
                    <path d="M95.3772813,285.862703 L150.96,256.693063 L204.00395,284.530364 C227.354767,274.994446 247.720457,259.673974 263.313122,240.353673 L253.360255,182.427123 L295.852477,141.081043 C294.715798,115.489997 287.057057,91.5914268 274.495141,71.0013421 L214.246838,62.2623076 L185.877958,4.882819 C173.788187,1.69705327 161.09263,-2.84217094e-14 148,-2.84217094e-14 C137.308577,-2.84217094e-14 126.881937,1.13165139 116.833729,3.28150532 L87.6731619,62.2623076 L20.9353766,71.9426435 C9.59358137,90.8482421 2.36611483,112.495666 0.488035708,135.652051 L48.5597449,182.427123 L37.6116442,246.146022 C53.2644207,263.629742 73.0239298,277.372037 95.3772813,285.862703 Z" id="Combined-Shape" stroke="#000000" stroke-width="7" fill="#FFC937"></path>
                    <text id="19x" font-family="AcuminProExtraCond-Medium, Acumin Pro ExtraCondensed" font-size="172.852307" font-style="condensed" font-weight="400" fill="#000000">
                        <tspan x="81.4" y="203.823248">19x</tspan>
                    </text>
                </g>
                <text id="Cohort-Copy-2" font-family="AcuminProExtraCond-Medium, Acumin Pro ExtraCondensed" font-size="283.453608" font-style="condensed" font-weight="400" fill="#FFFFFF">
                    <tspan x="0" y="270">Cohort</tspan>
                </text>
            </g>
        </g>
    </g>
</svg>