<?xml version="1.0" encoding="UTF-8" standalone="no"?>
<svg width="492px" height="477px" viewBox="0 0 492 477" version="1.1" xmlns="http://www.w3.org/2000/svg" xmlns:xlink="http://www.w3.org/1999/xlink">
    <!-- Generator: Sketch 3.8.2 (29753) - http://www.bohemiancoding.com/sketch -->
    <title>cohort-logo-icon</title>
    <desc>Created with Sketch.</desc>
    <defs></defs>
    <g id="Page-1" stroke="none" stroke-width="1" fill="none" fill-rule="evenodd">
        <g id="Artboard-1" transform="translate(-155.000000, -162.000000)">
            <g id="cohort-logo-icon" transform="translate(158.000000, 166.000000)">
                <path d="M156.276964,468.774851 L247.35,420.940722 L334.263229,466.590003 C372.523858,450.95243 405.893317,425.829 431.442108,394.146408 L415.134202,299.154967 L484.758282,231.353179 C482.895818,189.387443 470.346867,150.19713 449.763997,116.432271 L351.046339,102.101476 L304.563546,8.00714025 C284.754293,2.78293001 263.952451,-2.84217094e-14 242.5,-2.84217094e-14 C224.98196,-2.84217094e-14 207.897768,1.85575001 191.433643,5.38120978 L143.653661,102.101476 L34.3028974,117.975873 C15.7192127,148.978411 3.87691112,184.477159 0.799653103,222.450392 L79.5657982,299.154967 L61.6271873,403.64505 C87.2744731,432.315906 119.650696,454.851347 156.276964,468.774851 Z" id="Combined-Shape" stroke="#000000" stroke-width="7" fill="#FFC937"></path>
                <path d="M176.176495,333.979381 L176.176495,148.600722 L161.720361,148.600722 C156.901649,153.98634 145.563505,161.07268 134.792268,163.056856 L134.792268,179.213711 C139.610979,178.646804 150.949124,175.812268 156.051289,173.544639 L156.051289,333.979381 L176.176495,333.979381 Z M202.254227,294.012423 L202.254227,295.146237 C202.254227,316.405258 209.624021,336.24701 238.536289,336.24701 C272.834175,336.24701 276.802526,311.303093 276.802526,275.587938 L276.802526,192.536031 C276.802526,161.923041 263.480206,147.466907 239.103196,147.466907 C213.025464,147.466907 200.553505,164.19067 200.553505,191.402216 L200.553505,218.330309 C200.553505,243.841134 208.77366,261.415258 232.583763,261.415258 C246.189536,261.415258 252.992423,256.029639 256.960773,247.526031 L256.960773,280.690103 C256.960773,310.452732 252.708969,319.239794 238.819742,319.239794 C228.048505,319.239794 222.379433,311.87 222.379433,295.996598 L222.379433,294.012423 L202.254227,294.012423 Z M238.819742,164.474124 C251.858608,164.474124 256.960773,173.261186 256.960773,190.268402 L256.960773,211.243969 C256.960773,229.951907 253.275876,243.55768 237.685928,243.55768 C223.229794,243.55768 220.678711,231.085722 220.678711,218.330309 L220.678711,189.701495 C220.678711,171.843918 226.914691,164.474124 238.819742,164.474124 L238.819742,164.474124 Z M286.723402,189.701495 L315.352216,259.431082 L285.873041,333.979381 L307.132062,333.979381 C316.769485,305.634021 323.855825,285.508814 326.690361,277.005206 L326.973814,277.005206 C329.241443,284.658454 334.910515,303.082938 346.24866,333.979381 L367.791134,333.979381 L338.595412,256.88 L367.50768,189.701495 L346.532113,189.701495 C337.745052,214.078505 330.658711,230.802268 327.540722,240.723144 L327.257268,240.723144 C324.706186,232.786443 319.037113,218.046856 308.832784,189.701495 L286.723402,189.701495 Z" id="19x" fill="#000000"></path>
            </g>
        </g>
    </g>
</svg>