<?xml version="1.0" encoding="UTF-8" standalone="no"?>
<svg width="1103px" height="1070px" viewBox="0 0 1103 1070" version="1.1" xmlns="http://www.w3.org/2000/svg" xmlns:xlink="http://www.w3.org/1999/xlink">
    <!-- Generator: Sketch 3.8.2 (29753) - http://www.bohemiancoding.com/sketch -->
    <title>cohort-logo-icon</title>
    <desc>Created with Sketch.</desc>
    <defs></defs>
    <g id="Page-1" stroke="none" stroke-width="1" fill="none" fill-rule="evenodd">
        <g id="Artboard-1-Copy-13" transform="translate(-44.000000, -61.000000)">
            <g id="cohort-logo-icon" transform="translate(59.000000, 76.000000)">
                <path d="M345.064865,1038.50122 L546.74,932.531791 L739.203521,1033.66101 C823.92912,999.018284 897.823551,943.361047 954.399638,873.17296 L918.286872,662.733498 L1072.46473,512.528684 C1068.34043,419.559816 1040.55162,332.739484 994.972233,257.938442 L776.368595,226.190691 L673.435564,17.7386327 C629.569299,6.16516905 583.505016,0 536,0 C497.207474,0 459.375676,4.11113915 422.916975,11.9212728 L317.111405,226.190691 L74.9614677,261.358065 C33.8091432,330.039593 7.58515988,408.681808 0.770778211,492.805878 L175.193128,662.733498 L135.469277,894.215794 C192.263472,957.731827 263.958448,1007.65576 345.064865,1038.50122 Z" id="Combined-Shape" stroke="#000000" stroke-width="29" fill="#FFC937"></path>
                <text id="19x" font-family="AcuminProExtraCond-Medium, Acumin Pro ExtraCondensed" font-size="627.689021" font-style="condensed" font-weight="400" fill="#000000">
                    <tspan x="294.35" y="740.088651">19x</tspan>
                </text>
            </g>
        </g>
    </g>
</svg>