<?xml version="1.0" encoding="UTF-8" standalone="no"?>
<svg width="834px" height="294px" viewBox="0 0 834 294" version="1.1" xmlns="http://www.w3.org/2000/svg" xmlns:xlink="http://www.w3.org/1999/xlink">
    <!-- Generator: Sketch 3.8.2 (29753) - http://www.bohemiancoding.com/sketch -->
    <title>cohort-19-yellow</title>
    <desc>Created with Sketch.</desc>
    <defs></defs>
    <g id="Page-1" stroke="none" stroke-width="1" fill="none" fill-rule="evenodd">
        <g id="Artboard-1-Copy-6" transform="translate(-125.000000, -105.000000)">
            <g id="cohort-19-yellow" transform="translate(125.000000, 109.000000)">
                <g id="Group-Copy-5" transform="translate(534.000000, 0.000000)">
                    <path d="M95.3772813,285.862703 L150.96,256.693063 L204.00395,284.530364 C227.354767,274.994446 247.720457,259.673974 263.313122,240.353673 L253.360255,182.427123 L295.852477,141.081043 C294.715798,115.489997 287.057057,91.5914268 274.495141,71.0013421 L214.246838,62.2623076 L185.877958,4.882819 C173.788187,1.69705327 161.09263,-2.84217094e-14 148,-2.84217094e-14 C137.308577,-2.84217094e-14 126.881937,1.13165139 116.833729,3.28150532 L87.6731619,62.2623076 L20.9353766,71.9426435 C9.59358137,90.8482421 2.36611483,112.495666 0.488035708,135.652051 L48.5597449,182.427123 L37.6116442,246.146022 C53.2644207,263.629742 73.0239298,277.372037 95.3772813,285.862703 Z" id="Combined-Shape" stroke="#000000" stroke-width="7" fill="#FFC937"></path>
                    <path d="M107.500698,203.823248 L107.500698,90.7778388 L98.6852307,90.7778388 C95.7467415,94.0620326 88.8326492,98.3833403 82.2642615,99.5933064 L82.2642615,109.445888 C85.2027508,109.100183 92.116843,107.37166 95.2281846,105.988842 L95.2281846,203.823248 L107.500698,203.823248 Z M123.403111,179.451072 L123.403111,180.142481 C123.403111,193.106405 127.897271,205.206066 145.528206,205.206066 C166.443335,205.206066 168.863267,189.995063 168.863267,168.215672 L168.863267,117.569946 C168.863267,98.9018972 160.739209,90.0864296 145.87391,90.0864296 C129.971498,90.0864296 122.365997,100.284716 122.365997,116.878537 L122.365997,133.299506 C122.365997,148.856214 127.378714,159.573057 141.898307,159.573057 C150.195218,159.573057 154.343674,156.288863 156.763606,151.103294 L156.763606,171.327014 C156.763606,189.476506 154.170821,194.834928 145.701058,194.834928 C139.132671,194.834928 135.675624,190.340768 135.675624,180.661038 L135.675624,179.451072 L123.403111,179.451072 Z M145.701058,100.457568 C153.652264,100.457568 156.763606,105.815989 156.763606,116.187128 L156.763606,128.978199 C156.763606,140.386451 154.516526,148.683362 145.009649,148.683362 C136.194181,148.683362 134.638511,141.07786 134.638511,133.299506 L134.638511,115.841423 C134.638511,104.951728 138.441261,100.457568 145.701058,100.457568 L145.701058,100.457568 Z M174.913098,115.841423 L192.371181,158.363091 L174.394541,203.823248 L187.358464,203.823248 C193.235443,186.538017 197.55675,174.265503 199.285273,169.079934 L199.458126,169.079934 C200.840944,173.746946 204.29799,184.982346 211.212083,203.823248 L224.348858,203.823248 L206.54507,156.80742 L224.176006,115.841423 L211.384935,115.841423 C206.026513,130.706722 201.705206,140.905008 199.80383,146.954839 L199.630978,146.954839 C198.075307,142.114974 194.618261,133.126654 188.395578,115.841423 L174.913098,115.841423 Z" id="19x" fill="#000000"></path>
                </g>
                <path d="M57.0446907,215.576907 L57.0446907,223.513608 C57.0446907,241.371186 54.4936082,254.126598 39.7540206,254.126598 C25.5813402,254.126598 21.3295361,241.654639 21.3295361,222.663247 L21.3295361,124.588299 C21.3295361,107.864536 25.014433,96.5263918 39.1871134,96.5263918 C53.926701,96.5263918 56.4777835,108.998351 56.4777835,124.021392 L56.4777835,132.808454 L76.8864433,132.808454 L76.8864433,125.43866 C76.8864433,100.778196 71.2173711,78.1019072 39.470567,78.1019072 C13.6762887,78.1019072 0.63742268,94.8256701 0.63742268,125.155206 L0.63742268,221.529433 C0.63742268,249.307887 6.30649485,272.551082 39.1871134,272.551082 C73.485,272.551082 77.7368041,246.189897 77.7368041,222.09634 L77.7368041,215.576907 L57.0446907,215.576907 Z M130.459175,123.454485 C106.932526,123.454485 92.1929381,138.477526 92.1929381,166.255979 L92.1929381,227.765412 C92.1929381,258.661856 106.082165,272.267629 129.608814,272.267629 C152.85201,272.267629 167.591598,258.378402 167.591598,226.915052 L167.591598,166.539433 C167.591598,139.327887 154.552732,123.454485 130.459175,123.454485 L130.459175,123.454485 Z M129.892268,141.312062 C142.64768,141.312062 147.182938,151.799845 147.182938,165.972526 L147.182938,228.33232 C147.182938,246.473351 141.230412,254.126598 129.892268,254.126598 C117.987216,254.126598 112.601598,244.205722 112.601598,228.33232 L112.601598,165.972526 C112.601598,150.382577 117.703763,141.312062 129.892268,141.312062 L129.892268,141.312062 Z M189.984433,270 L210.109639,270 L210.109639,174.759588 C210.109639,153.784021 213.794536,141.878969 229.101031,141.878969 C242.706804,141.878969 244.407526,153.500567 244.407526,165.689072 L244.407526,270 L264.532732,270 L264.532732,160.586907 C264.532732,139.61134 258.013299,123.454485 236.470825,123.454485 C222.298144,123.454485 213.794536,130.257371 210.109639,138.760979 L210.109639,72.1493814 L189.984433,72.1493814 L189.984433,270 Z M325.191804,123.454485 C301.665155,123.454485 286.925567,138.477526 286.925567,166.255979 L286.925567,227.765412 C286.925567,258.661856 300.814794,272.267629 324.341443,272.267629 C347.584639,272.267629 362.324227,258.378402 362.324227,226.915052 L362.324227,166.539433 C362.324227,139.327887 349.285361,123.454485 325.191804,123.454485 L325.191804,123.454485 Z M324.624897,141.312062 C337.380309,141.312062 341.915567,151.799845 341.915567,165.972526 L341.915567,228.33232 C341.915567,246.473351 335.963041,254.126598 324.624897,254.126598 C312.719845,254.126598 307.334227,244.205722 307.334227,228.33232 L307.334227,165.972526 C307.334227,150.382577 312.436392,141.312062 324.624897,141.312062 L324.624897,141.312062 Z M434.604897,123.737938 C422.132938,124.021392 409.660979,130.540825 404.275361,148.114948 C404.275361,138.477526 403.991907,129.40701 403.708454,125.722113 L384.433608,125.722113 C384.717062,138.477526 384.717062,151.516392 384.717062,174.759588 L384.717062,270 L404.842268,270 L404.842268,185.247371 C404.842268,159.169639 417.030773,148.681856 434.604897,148.681856 L434.604897,123.737938 Z M435.171804,143.579691 L451.612113,143.579691 L451.612113,244.205722 C451.612113,266.031649 461.53299,271.984175 475.422216,271.984175 C480.524381,271.984175 486.760361,271.417268 491.012165,269.716546 L491.012165,254.126598 C489.02799,254.693505 484.776186,254.976959 482.225103,254.976959 C472.871134,254.976959 471.73732,247.890619 471.73732,240.520825 L471.73732,143.579691 L492.145979,143.579691 L492.145979,125.722113 L471.73732,125.722113 L471.73732,90.2904124 L451.612113,90.2904124 L451.612113,125.722113 L435.171804,125.722113 L435.171804,143.579691 Z" id="Cohort-Copy-2" fill="#FFFFFF"></path>
            </g>
        </g>
    </g>
</svg>