<?xml version="1.0" encoding="utf-8"?>
<!-- Generator: Adobe Illustrator 19.1.1, SVG Export Plug-In . SVG Version: 6.00 Build 0)  -->
<svg version="1.1" id="Layer_1" xmlns="http://www.w3.org/2000/svg" xmlns:xlink="http://www.w3.org/1999/xlink" x="0px" y="0px"
	 viewBox="0 0 48 48" enable-background="new 0 0 48 48" xml:space="preserve">
<g>
	<path fill="#FFC107" d="M38,42H10c-2.2,0-4-1.8-4-4V10c0-2.2,1.8-4,4-4h28c2.2,0,4,1.8,4,4v28C42,40.2,40.2,42,38,42z"/>
</g>
<path fill="#4CAF50" d="M38,6H24v22h18V10C42,7.8,40.2,6,38,6z"/>
<path fill="#FF4081" d="M6,38c0,2.2,1.8,4,4,4h14V20.1H6V38z"/>
<path fill="#AA00FF" d="M24,20.1V6H10c-2.2,0-4,1.8-4,4v10.1H24z"/>
<polygon fill="#263238" points="42,27 25,27 25,6 23,6 23,19 6,19 6,21 23,21 23,42 25,42 25,29 42,29 "/>
</svg>
