<?xml version="1.0" encoding="utf-8"?>
<!-- Generator: Adobe Illustrator 15.0.0, SVG Export Plug-In . SVG Version: 6.00 Build 0)  -->
<!DOCTYPE svg PUBLIC "-//W3C//DTD SVG 1.1//EN" "http://www.w3.org/Graphics/SVG/1.1/DTD/svg11.dtd">
<svg version="1.1" id="Слой_1" xmlns="http://www.w3.org/2000/svg" xmlns:xlink="http://www.w3.org/1999/xlink" x="0px" y="0px"
	 width="48px" height="48px" viewBox="0 0 48 48" enable-background="new 0 0 48 48" xml:space="preserve">
<circle fill="#FFCA28" cx="24" cy="24" r="19"/>
<path fill="none" stroke="#B76C09" stroke-width="2" d="M16,33c0,0,3,1,8,1c9,0,10-4,10-4"/>
<g>
	<path fill="#37474F" d="M22,21c0,1.104,0,6-6,6l0,0c-4,0-7-4-7-6l0,0c0-2,1-3,3-3h7C20.104,18,22,19,22,21L22,21z"/>
	<path fill="#37474F" d="M26,21c0,1.104,0,6,6,6l0,0c4,0,7-4,7-6l0,0c0-2-1-3-3-3h-7C27.896,18,26,19,26,21L26,21z"/>
	<path fill="none" stroke="#37474F" stroke-width="2" d="M21,22c0,0,0-2,3-2s3,2,3,2"/>
	<line fill="none" stroke="#37474F" stroke-width="2" stroke-linecap="round" x1="10" y1="20" x2="6" y2="19"/>
	<line fill="none" stroke="#37474F" stroke-width="2" stroke-linecap="round" x1="38" y1="20" x2="42" y2="19"/>
</g>
</svg>
