<?xml version="1.0" encoding="utf-8"?>
<!-- Generator: Adobe Illustrator 15.0.0, SVG Export Plug-In . SVG Version: 6.00 Build 0)  -->
<!DOCTYPE svg PUBLIC "-//W3C//DTD SVG 1.1//EN" "http://www.w3.org/Graphics/SVG/1.1/DTD/svg11.dtd">
<svg version="1.1" id="Слой_1" xmlns="http://www.w3.org/2000/svg" xmlns:xlink="http://www.w3.org/1999/xlink" x="0px" y="0px"
	 width="48px" height="48px" viewBox="0 0 48 48" enable-background="new 0 0 48 48" xml:space="preserve">
<g>
	<rect x="10" y="36" fill="#C5CAE9" width="4" height="8"/>
	<rect x="34" y="36" fill="#C5CAE9" width="4" height="8"/>
</g>
<path fill="#F44336" d="M42,39H6v-4c0-1.656,1.343-3,3-3h30c1.656,0,3,1.344,3,3V39z"/>
<path fill="#37474F" d="M32.96,31.105C32.77,29.913,31.746,29,30.5,29c-0.635,0-12.441,0-13,0c-1.381,0-2.5,1.119-2.5,2.5
	c0,0.242,0.045,0.472,0.109,0.693c0.006,0.02,0.006,0.039,0.012,0.059l2.963,10.322c0.26,0.867,1.054,1.427,1.915,1.427
	c0.19,0,0.384-0.028,0.576-0.085c1.058-0.317,1.658-1.433,1.341-2.49L20,33l4.014-1L28,33l-1.916,8.426
	c-0.316,1.058,0.283,2.173,1.342,2.49c0.191,0.058,0.385,0.085,0.575,0.085c0.86,0,1.655-0.56,1.915-1.427l3.028-10.555
	c0.001-0.006,0.004-0.012,0.005-0.018v-0.001C33.057,31.646,33.047,31.355,32.96,31.105z"/>
<path fill="#8BC34A" d="M32.991,27.896c-0.005-0.054-0.006-0.109-0.017-0.161c-0.012-0.054-0.032-0.105-0.049-0.158
	c-0.015-0.042-0.024-0.087-0.042-0.128c-0.003-0.007-0.004-0.016-0.007-0.022L31.979,22c-0.484-3.875-3.889-7-8-7
	c-4.106,0-7.578,3.203-8,7l-0.871,5c-0.015,0.034-0.014,0.084-0.014,0.132c-0.074,0.178-0.116,0.372-0.116,0.576
	c0,0.646,0.41,1.191,0.982,1.403c0.001,0,0.002,0.003,0.002,0.004c0.171,0.387,6.541,2.308,6.541,2.308
	c0.157,0.053,0.317,0.077,0.474,0.077c0.383,0,0.738-0.161,1.014-0.418c0.275,0.257,0.631,0.418,1.014,0.418
	c0.157,0,0.316-0.024,0.475-0.077l6.5-1.964c0.004-0.002,0.008-0.004,0.012-0.006c0.09-0.031,0.174-0.069,0.255-0.115
	c0.009-0.006,0.019-0.01,0.027-0.015c0.08-0.048,0.154-0.104,0.224-0.165c0.008-0.007,0.016-0.012,0.023-0.02
	c0.07-0.064,0.134-0.136,0.19-0.213c0.004-0.006,0.009-0.01,0.013-0.016c0.176-0.245,0.281-0.544,0.281-0.869
	c0-0.002,0-0.002,0-0.004C33.006,27.99,32.996,27.943,32.991,27.896z"/>
<path fill="#558B2F" d="M27.979,20l-0.799,5.498l-3.188,1.148l-3.188-1.148L19.979,20l-1.5,6.785l4.974,1.792
	c0.212,0.07,0.396,0.187,0.549,0.331c0.15-0.141,0.321-0.262,0.529-0.331l4.975-1.792L27.979,20z"/>
<path fill="#F1F8E9" d="M25.98,15.258C25.914,15.792,25.586,17,23.96,17c-1.623,0-1.903-1.204-1.949-1.74
	c-0.671,0.172-1.31,0.423-1.9,0.752c0.124,0.561,0.384,1.229,0.937,1.816C21.549,18.363,22.463,19,23.96,19
	c1.479,0,2.397-0.622,2.908-1.144c0.587-0.6,0.866-1.29,1.005-1.854C27.284,15.676,26.648,15.428,25.98,15.258z"/>
<path fill="#FF9800" d="M26,12h-4v3c0,0-0.124,2,1.959,2S26,15,26,15V12z"/>
<path fill="#FFB74D" d="M24,14.905c-2.758,0-5-2.243-5-5c0-2.757,2.242-5,5-5s5,2.243,5,5C29,12.662,26.758,14.905,24,14.905"/>
<path fill="#424242" d="M23.788,3.02c-2.438,0.219-4.781,1.93-4.781,5.574v1.426l1,1v-3l6.31-2.201l1.69,2.201v3l1-1V8.817
	c0-2.414-0.135-4.206-3-4.798l-0.485-1L23.788,3.02L23.788,3.02z"/>
</svg>
