<?xml version="1.0" encoding="utf-8"?>
<!-- Generator: Adobe Illustrator 15.0.0, SVG Export Plug-In . SVG Version: 6.00 Build 0)  -->
<!DOCTYPE svg PUBLIC "-//W3C//DTD SVG 1.1//EN" "http://www.w3.org/Graphics/SVG/1.1/DTD/svg11.dtd">
<svg version="1.1" id="Слой_1" xmlns="http://www.w3.org/2000/svg" xmlns:xlink="http://www.w3.org/1999/xlink" x="0px" y="0px"
	 width="48px" height="48px" viewBox="0 0 48 48" enable-background="new 0 0 48 48" xml:space="preserve">
<rect x="17.636" y="2.08" transform="matrix(0.7071 -0.7071 0.7071 0.7071 -9.9411 24)" fill="#42A5F5" width="12.728" height="43.841"/>
<g>
	
		<rect x="16.72" y="10.038" transform="matrix(-0.7071 -0.7071 0.7071 -0.7071 20.9018 35.0992)" fill="#1565C0" width="2" height="6.365"/>
	
		<rect x="31.78" y="24.513" transform="matrix(0.7071 0.7071 -0.7071 0.7071 28.1849 -15.4819)" fill="#1565C0" width="2.001" height="3.536"/>
	
		<rect x="14.75" y="7.482" transform="matrix(0.7071 0.7071 -0.7071 0.7071 11.1537 -8.4273)" fill="#1565C0" width="2" height="3.536"/>
	
		<rect x="37.81" y="30.542" transform="matrix(0.7071 0.7071 -0.7071 0.7071 34.2142 -17.9793)" fill="#1565C0" width="2" height="3.536"/>
	
		<rect x="20.75" y="13.482" transform="matrix(0.7071 0.7071 -0.7071 0.7071 17.1537 -10.9126)" fill="#1565C0" width="2" height="3.536"/>
	
		<rect x="31.598" y="29.281" transform="matrix(0.7072 -0.707 0.707 0.7072 -11.2254 33.4579)" fill="#1565C0" width="6.365" height="2"/>
</g>
<path fill="#E57373" d="M42.583,9.067l-3.651-3.65c-0.555-0.556-1.459-0.556-2.015,0l-1.718,1.72l5.665,5.664l1.719-1.718
	C43.139,10.526,43.139,9.625,42.583,9.067"/>
<rect x="4.466" y="21.525" transform="matrix(0.7071 -0.7071 0.7071 0.7071 -11.4721 23.3648)" fill="#FF9800" width="36.007" height="8.012"/>
<rect x="34.612" y="7.379" transform="matrix(-0.7069 0.7074 -0.7074 -0.7069 70.5502 -6.4676)" fill="#B0BEC5" width="4.006" height="8.012"/>
<polygon fill="#FFC107" points="6.905,35.429 5,43 12.571,41.094 "/>
<polygon fill="#37474F" points="5.965,39.172 5,43 8.827,42.035 "/>
</svg>
