<?xml version="1.0" encoding="utf-8"?>
<!-- Generator: Adobe Illustrator 18.1.1, SVG Export Plug-In . SVG Version: 6.00 Build 0)  -->
<svg version="1.1" id="Layer_1" xmlns="http://www.w3.org/2000/svg" xmlns:xlink="http://www.w3.org/1999/xlink" x="0px" y="0px"
	 viewBox="0 0 48 48" enable-background="new 0 0 48 48" xml:space="preserve">
<path fill="#F8BBD0" d="M31,44v-4.6l2.6,0.5c2.9,0.6,5.6-1.5,5.8-4.4L40,29l2.9-1.2c1-0.4,1.4-1.6,0.8-2.6L40,19
	c-0.6-7.6-4.9-15-16-15C12.6,4,7,12.4,7,21c0,3.7,1.3,6.9,3.3,9.6c1.8,2.5,2.7,5.5,2.7,8.5l0,4.8H31z"/>
<path fill="#E91E63" d="M30.7,22.9c0-0.3,0.1-0.6,0.1-0.9s0-0.6-0.1-0.9l1.9-1.4c0.2-0.1,0.2-0.4,0.1-0.6l-1.8-3.2
	c-0.1-0.2-0.4-0.3-0.6-0.2l-2.1,1c-0.5-0.4-1-0.7-1.6-0.9l-0.2-2.3c0-0.2-0.2-0.4-0.4-0.4h-3.7c-0.2,0-0.4,0.2-0.4,0.4l-0.2,2.3
	c-0.6,0.2-1.1,0.6-1.6,0.9l-2.1-1c-0.2-0.1-0.5,0-0.6,0.2l-1.8,3.2c-0.1,0.2-0.1,0.5,0.1,0.6l1.9,1.4c0,0.3-0.1,0.6-0.1,0.9
	s0,0.6,0.1,0.9l-1.9,1.4c-0.2,0.1-0.2,0.4-0.1,0.6l1.8,3.2c0.1,0.2,0.4,0.3,0.6,0.2l2.1-1c0.5,0.4,1,0.7,1.6,0.9l0.2,2.3
	c0,0.2,0.2,0.4,0.4,0.4h3.7c0.2,0,0.4-0.2,0.4-0.4l0.2-2.3c0.6-0.2,1.1-0.6,1.6-0.9l2.1,1c0.2,0.1,0.5,0,0.6-0.2l1.8-3.2
	c0.1-0.2,0.1-0.5-0.1-0.6L30.7,22.9z M24,25.5c-1.9,0-3.5-1.5-3.5-3.5c0-1.9,1.5-3.5,3.5-3.5c1.9,0,3.5,1.5,3.5,3.5
	C27.5,23.9,25.9,25.5,24,25.5z"/>
</svg>
